<svg width="416" height="195" viewBox="0 0 416 195" fill="none" xmlns="http://www.w3.org/2000/svg">
<path d="M24.3815 173.479C23.7608 173.479 23.1782 173.612 22.6335 173.878C22.1015 174.144 21.6328 174.53 21.2275 175.037C20.8222 175.544 20.5055 176.152 20.2775 176.861C20.0495 177.57 19.9355 178.368 19.9355 179.255C19.9355 180.142 20.0432 180.94 20.2585 181.649C20.4865 182.358 20.8032 182.966 21.2085 183.473C21.6138 183.98 22.1078 184.366 22.6905 184.632C23.2732 184.898 23.9318 185.031 24.6665 185.031C25.4265 185.031 26.0915 184.86 26.6615 184.518C27.2442 184.176 27.7255 183.714 28.1055 183.131C28.4982 182.536 28.7895 181.877 28.9795 181.155L30.1385 181.592C29.9105 182.504 29.5432 183.308 29.0365 184.005C28.5298 184.702 27.8965 185.246 27.1365 185.639C26.3765 186.019 25.5152 186.209 24.5525 186.209C23.5898 186.209 22.7095 186.044 21.9115 185.715C21.1262 185.386 20.4422 184.917 19.8595 184.309C19.2768 183.688 18.8272 182.954 18.5105 182.105C18.1938 181.244 18.0355 180.294 18.0355 179.255C18.0355 178.229 18.2002 177.292 18.5295 176.443C18.8588 175.582 19.3148 174.841 19.8975 174.22C20.4802 173.599 21.1515 173.124 21.9115 172.795C22.6842 172.466 23.5012 172.301 24.3625 172.301C25.2365 172.301 25.9838 172.434 26.6045 172.7C27.2378 172.966 27.7572 173.346 28.1625 173.84C28.5678 174.321 28.8718 174.904 29.0745 175.588L28.3905 175.512L28.6945 172.491H29.8535V176.633H28.5615C28.3588 176 28.0675 175.449 27.6875 174.98C27.3202 174.511 26.8642 174.144 26.3195 173.878C25.7748 173.612 25.1288 173.479 24.3815 173.479ZM38.4137 176.12V177.83C38.3251 177.805 38.2174 177.786 38.0907 177.773C37.9767 177.748 37.8564 177.729 37.7297 177.716C37.6031 177.703 37.4827 177.697 37.3687 177.697C37.0141 177.697 36.7101 177.741 36.4567 177.83C36.2034 177.919 35.9754 178.058 35.7727 178.248C35.5701 178.425 35.3801 178.653 35.2027 178.932C35.0381 179.211 34.8544 179.546 34.6517 179.939V178.761C34.8671 178.216 35.1204 177.748 35.4117 177.355C35.7031 176.95 36.0387 176.633 36.4187 176.405C36.8114 176.177 37.2611 176.063 37.7677 176.063C37.8944 176.063 38.0147 176.069 38.1287 176.082C38.2554 176.082 38.3504 176.095 38.4137 176.12ZM31.6877 186V185.145H31.7257C32.1817 185.145 32.5554 185.094 32.8467 184.993C33.1381 184.892 33.2837 184.689 33.2837 184.385V178.039C33.2837 177.849 33.2331 177.71 33.1317 177.621C33.0304 177.52 32.8721 177.437 32.6567 177.374C32.4541 177.311 32.1944 177.247 31.8777 177.184L31.6877 177.146V176.253H34.7847L34.8227 179.008L34.9747 178.856V184.518C34.9747 184.708 35.0634 184.847 35.2407 184.936C35.4307 185.025 35.6461 185.082 35.8867 185.107C36.1401 185.132 36.3554 185.145 36.5327 185.145H36.8747V186H31.6877ZM42.0041 174.144C41.6621 174.144 41.3771 174.043 41.1491 173.84C40.9338 173.637 40.8261 173.352 40.8261 172.985C40.8261 172.618 40.9338 172.333 41.1491 172.13C41.3771 171.927 41.6621 171.826 42.0041 171.826C42.3335 171.826 42.6058 171.927 42.8211 172.13C43.0491 172.333 43.1631 172.618 43.1631 172.985C43.1631 173.352 43.0491 173.637 42.8211 173.84C42.6058 174.043 42.3335 174.144 42.0041 174.144ZM42.9351 176.253V184.404C42.9351 184.708 43.0808 184.911 43.3721 185.012C43.6761 185.101 44.0561 185.145 44.5121 185.145H44.5501V186H39.6291V185.145H39.6671C40.1231 185.145 40.4968 185.101 40.7881 185.012C41.0921 184.911 41.2441 184.708 41.2441 184.404V178.039C41.2441 177.76 41.1301 177.57 40.9021 177.469C40.6741 177.368 40.3131 177.273 39.8191 177.184L39.6291 177.146V176.253H42.9351ZM52.4022 180.091V181.041C51.7435 181.117 51.1609 181.212 50.6542 181.326C50.1475 181.427 49.7105 181.548 49.3432 181.687C48.9885 181.826 48.6972 181.991 48.4692 182.181C48.2412 182.358 48.0702 182.567 47.9562 182.808C47.8549 183.049 47.8042 183.315 47.8042 183.606C47.8042 183.923 47.8739 184.195 48.0132 184.423C48.1525 184.651 48.3489 184.828 48.6022 184.955C48.8555 185.082 49.1532 185.145 49.4952 185.145C49.9259 185.145 50.3122 185.037 50.6542 184.822C51.0089 184.607 51.3255 184.309 51.6042 183.929C51.8829 183.536 52.1362 183.068 52.3642 182.523V183.834C52.1615 184.315 51.8955 184.733 51.5662 185.088C51.2495 185.443 50.8822 185.715 50.4642 185.905C50.0462 186.095 49.5712 186.19 49.0392 186.19C48.4819 186.19 47.9752 186.089 47.5192 185.886C47.0759 185.683 46.7149 185.392 46.4362 185.012C46.1702 184.619 46.0372 184.157 46.0372 183.625C46.0372 183.106 46.1639 182.656 46.4172 182.276C46.6832 181.883 47.0822 181.548 47.6142 181.269C48.1462 180.978 48.8112 180.737 49.6092 180.547C50.4072 180.357 51.3382 180.205 52.4022 180.091ZM52.1172 186L52.0792 183.948L51.9082 183.872V179.255C51.9082 178.723 51.8322 178.305 51.6802 178.001C51.5409 177.697 51.3319 177.482 51.0532 177.355C50.7745 177.228 50.4262 177.165 50.0082 177.165C49.3622 177.165 48.8302 177.292 48.4122 177.545C48.0069 177.786 47.6839 178.064 47.4432 178.381C47.4179 178.242 47.4242 178.115 47.4622 178.001C47.5002 177.874 47.5572 177.76 47.6332 177.659C47.7219 177.558 47.8169 177.469 47.9182 177.393C48.0322 177.317 48.1525 177.254 48.2792 177.203V179.217H46.6262V177.184C46.8162 177.045 47.0695 176.886 47.3862 176.709C47.7155 176.532 48.1082 176.38 48.5642 176.253C49.0329 176.126 49.5459 176.063 50.1032 176.063C50.5592 176.063 50.9899 176.114 51.3952 176.215C51.8132 176.316 52.1869 176.487 52.5162 176.728C52.8455 176.956 53.1052 177.266 53.2952 177.659C53.4852 178.039 53.5802 178.508 53.5802 179.065V184.423C53.5802 184.6 53.6499 184.74 53.7892 184.841C53.9285 184.942 54.1122 185.012 54.3402 185.05C54.5809 185.088 54.8532 185.113 55.1572 185.126H55.1762V186H52.1172ZM56.1799 186V185.145H56.2179C56.5219 185.145 56.7879 185.126 57.0159 185.088C57.2566 185.037 57.4403 184.961 57.5669 184.86C57.7063 184.746 57.7759 184.588 57.7759 184.385V178.039C57.7759 177.849 57.7253 177.71 57.6239 177.621C57.5226 177.52 57.3643 177.437 57.1489 177.374C56.9463 177.311 56.6866 177.247 56.3699 177.184L56.1799 177.146V176.253H59.2769L59.3149 178.305L59.4669 178.495V184.955C59.4669 184.993 59.5429 185.031 59.6949 185.069C59.8469 185.094 60.0306 185.113 60.2459 185.126C60.4613 185.139 60.6576 185.145 60.8349 185.145H60.8919V186H56.1799ZM67.3329 186H62.6209V185.145H62.6589C62.8363 185.145 63.0326 185.139 63.2479 185.126C63.4633 185.113 63.6469 185.094 63.7989 185.069C63.9636 185.031 64.0459 184.993 64.0459 184.955V179.312C64.0459 178.831 63.9953 178.444 63.8939 178.153C63.7926 177.849 63.6216 177.627 63.3809 177.488C63.1403 177.349 62.8173 177.279 62.4119 177.279C61.9939 177.279 61.5949 177.361 61.2149 177.526C60.8349 177.691 60.4739 177.938 60.1319 178.267C59.7899 178.584 59.4606 178.983 59.1439 179.464V178.229C59.4859 177.748 59.8343 177.349 60.1889 177.032C60.5563 176.703 60.9426 176.462 61.3479 176.31C61.7659 176.145 62.2283 176.063 62.7349 176.063C63.3429 176.063 63.8686 176.171 64.3119 176.386C64.7553 176.601 65.1036 176.931 65.3569 177.374C65.6103 177.817 65.7369 178.394 65.7369 179.103V184.385C65.7369 184.588 65.8003 184.746 65.9269 184.86C66.0663 184.961 66.2499 185.037 66.4779 185.088C66.7186 185.126 66.9909 185.145 67.2949 185.145H67.3329V186ZM78.0753 184.423C78.0753 184.702 78.221 184.885 78.5123 184.974C78.8163 185.063 79.1963 185.113 79.6523 185.126H79.6713V186H76.5553L76.5173 183.853L76.3843 183.815V173.745C76.3843 173.555 76.3337 173.409 76.2323 173.308C76.131 173.207 75.9727 173.124 75.7573 173.061C75.542 172.998 75.2633 172.941 74.9213 172.89L74.7313 172.852V171.959H78.0753V184.423ZM73.2683 176.063C73.775 176.063 74.2247 176.139 74.6173 176.291C75.0227 176.443 75.3963 176.671 75.7383 176.975C76.0803 177.279 76.4033 177.672 76.7073 178.153V179.787C76.4287 179.179 76.1183 178.685 75.7763 178.305C75.4343 177.912 75.0607 177.627 74.6553 177.45C74.25 177.26 73.8067 177.165 73.3253 177.165C72.8567 177.165 72.445 177.26 72.0903 177.45C71.7357 177.64 71.4317 177.912 71.1783 178.267C70.9377 178.609 70.754 179.033 70.6273 179.54C70.5133 180.034 70.4563 180.591 70.4563 181.212C70.4563 181.807 70.5133 182.346 70.6273 182.827C70.754 183.296 70.9313 183.707 71.1593 184.062C71.4 184.404 71.6977 184.664 72.0523 184.841C72.407 185.018 72.806 185.107 73.2493 185.107C73.7687 185.107 74.231 185.006 74.6363 184.803C75.0417 184.588 75.4153 184.284 75.7573 183.891C76.0993 183.486 76.416 182.985 76.7073 182.39V183.929C76.378 184.423 76.036 184.841 75.6813 185.183C75.3393 185.512 74.9593 185.766 74.5413 185.943C74.136 186.108 73.6673 186.19 73.1353 186.19C72.236 186.19 71.4507 185.987 70.7793 185.582C70.1207 185.164 69.6013 184.581 69.2213 183.834C68.854 183.074 68.6703 182.2 68.6703 181.212C68.6703 180.186 68.8603 179.293 69.2403 178.533C69.6203 177.76 70.1587 177.159 70.8553 176.728C71.552 176.285 72.3563 176.063 73.2683 176.063ZM90.9285 181.136C90.9285 182.124 90.7132 183.004 90.2825 183.777C89.8645 184.537 89.2819 185.132 88.5345 185.563C87.7872 185.981 86.9259 186.19 85.9505 186.19C84.9752 186.19 84.1075 185.981 83.3475 185.563C82.6002 185.132 82.0112 184.537 81.5805 183.777C81.1625 183.004 80.9535 182.124 80.9535 181.136C80.9535 180.389 81.0739 179.705 81.3145 179.084C81.5552 178.463 81.8972 177.931 82.3405 177.488C82.7965 177.032 83.3285 176.684 83.9365 176.443C84.5445 176.19 85.2159 176.063 85.9505 176.063C86.6725 176.063 87.3375 176.19 87.9455 176.443C88.5535 176.684 89.0792 177.032 89.5225 177.488C89.9785 177.931 90.3269 178.463 90.5675 179.084C90.8082 179.705 90.9285 180.389 90.9285 181.136ZM82.7395 181.136C82.7395 181.934 82.8662 182.637 83.1195 183.245C83.3855 183.84 83.7592 184.303 84.2405 184.632C84.7219 184.949 85.2919 185.107 85.9505 185.107C86.6219 185.107 87.1919 184.949 87.6605 184.632C88.1292 184.303 88.4902 183.84 88.7435 183.245C89.0095 182.637 89.1425 181.934 89.1425 181.136C89.1425 180.325 89.0095 179.622 88.7435 179.027C88.4902 178.432 88.1292 177.976 87.6605 177.659C87.1919 177.33 86.6219 177.165 85.9505 177.165C85.2919 177.165 84.7219 177.33 84.2405 177.659C83.7592 177.976 83.3855 178.432 83.1195 179.027C82.8662 179.622 82.7395 180.325 82.7395 181.136ZM106.909 184.423C106.909 184.702 107.055 184.885 107.346 184.974C107.65 185.063 108.03 185.113 108.486 185.126H108.505V186H105.389L105.351 183.853L105.218 183.815V173.745C105.218 173.555 105.168 173.409 105.066 173.308C104.965 173.207 104.807 173.124 104.591 173.061C104.376 172.998 104.097 172.941 103.755 172.89L103.565 172.852V171.959H106.909V184.423ZM102.102 176.063C102.609 176.063 103.059 176.139 103.451 176.291C103.857 176.443 104.23 176.671 104.572 176.975C104.914 177.279 105.237 177.672 105.541 178.153V179.787C105.263 179.179 104.952 178.685 104.61 178.305C104.268 177.912 103.895 177.627 103.489 177.45C103.084 177.26 102.641 177.165 102.159 177.165C101.691 177.165 101.279 177.26 100.924 177.45C100.57 177.64 100.266 177.912 100.012 178.267C99.7717 178.609 99.588 179.033 99.4613 179.54C99.3473 180.034 99.2903 180.591 99.2903 181.212C99.2903 181.807 99.3473 182.346 99.4613 182.827C99.588 183.296 99.7653 183.707 99.9933 184.062C100.234 184.404 100.532 184.664 100.886 184.841C101.241 185.018 101.64 185.107 102.083 185.107C102.603 185.107 103.065 185.006 103.47 184.803C103.876 184.588 104.249 184.284 104.591 183.891C104.933 183.486 105.25 182.985 105.541 182.39V183.929C105.212 184.423 104.87 184.841 104.515 185.183C104.173 185.512 103.793 185.766 103.375 185.943C102.97 186.108 102.501 186.19 101.969 186.19C101.07 186.19 100.285 185.987 99.6133 185.582C98.9547 185.164 98.4353 184.581 98.0553 183.834C97.688 183.074 97.5043 182.2 97.5043 181.212C97.5043 180.186 97.6943 179.293 98.0743 178.533C98.4543 177.76 98.9927 177.159 99.6893 176.728C100.386 176.285 101.19 176.063 102.102 176.063ZM111.517 181.212C111.517 181.845 111.599 182.403 111.764 182.884C111.928 183.365 112.156 183.771 112.448 184.1C112.739 184.429 113.081 184.683 113.474 184.86C113.879 185.025 114.31 185.107 114.766 185.107C115.285 185.107 115.735 185.006 116.115 184.803C116.495 184.6 116.811 184.353 117.065 184.062C117.331 183.758 117.559 183.46 117.749 183.169L118.642 183.948C118.401 184.366 118.097 184.746 117.73 185.088C117.375 185.43 116.951 185.702 116.457 185.905C115.963 186.095 115.386 186.19 114.728 186.19C113.803 186.19 112.967 185.987 112.22 185.582C111.472 185.177 110.877 184.6 110.434 183.853C110.003 183.093 109.788 182.2 109.788 181.174C109.788 180.161 109.99 179.274 110.396 178.514C110.801 177.754 111.352 177.159 112.049 176.728C112.745 176.285 113.524 176.063 114.386 176.063C115.095 176.063 115.709 176.183 116.229 176.424C116.761 176.652 117.204 176.994 117.559 177.45C117.926 177.893 118.205 178.463 118.395 179.16C118.585 179.844 118.68 180.648 118.68 181.573H111.175V180.509H117.426L116.894 180.927C116.881 180.281 116.824 179.724 116.723 179.255C116.621 178.774 116.463 178.381 116.248 178.077C116.045 177.773 115.792 177.545 115.488 177.393C115.184 177.241 114.816 177.165 114.386 177.165C113.98 177.165 113.607 177.26 113.265 177.45C112.923 177.627 112.619 177.893 112.353 178.248C112.087 178.59 111.878 179.014 111.726 179.521C111.586 180.015 111.517 180.579 111.517 181.212ZM135.089 181.136C135.089 182.124 134.873 183.004 134.443 183.777C134.025 184.537 133.442 185.132 132.695 185.563C131.947 185.981 131.086 186.19 130.111 186.19C129.135 186.19 128.268 185.981 127.508 185.563C126.76 185.132 126.171 184.537 125.741 183.777C125.323 183.004 125.114 182.124 125.114 181.136C125.114 180.389 125.234 179.705 125.475 179.084C125.715 178.463 126.057 177.931 126.501 177.488C126.957 177.032 127.489 176.684 128.097 176.443C128.705 176.19 129.376 176.063 130.111 176.063C130.833 176.063 131.498 176.19 132.106 176.443C132.714 176.684 133.239 177.032 133.683 177.488C134.139 177.931 134.487 178.463 134.728 179.084C134.968 179.705 135.089 180.389 135.089 181.136ZM126.9 181.136C126.9 181.934 127.026 182.637 127.28 183.245C127.546 183.84 127.919 184.303 128.401 184.632C128.882 184.949 129.452 185.107 130.111 185.107C130.782 185.107 131.352 184.949 131.821 184.632C132.289 184.303 132.65 183.84 132.904 183.245C133.17 182.637 133.303 181.934 133.303 181.136C133.303 180.325 133.17 179.622 132.904 179.027C132.65 178.432 132.289 177.976 131.821 177.659C131.352 177.33 130.782 177.165 130.111 177.165C129.452 177.165 128.882 177.33 128.401 177.659C127.919 177.976 127.546 178.432 127.28 179.027C127.026 179.622 126.9 180.325 126.9 181.136ZM142.844 186.19C142.35 186.19 141.901 186.114 141.495 185.962C141.09 185.81 140.716 185.582 140.374 185.278C140.032 184.961 139.703 184.569 139.386 184.1V182.504C139.69 183.087 140.013 183.574 140.355 183.967C140.697 184.347 141.071 184.632 141.476 184.822C141.894 185.012 142.338 185.107 142.806 185.107C143.275 185.107 143.68 185.012 144.022 184.822C144.377 184.632 144.675 184.36 144.915 184.005C145.156 183.65 145.333 183.226 145.447 182.732C145.574 182.238 145.637 181.687 145.637 181.079C145.637 180.471 145.574 179.926 145.447 179.445C145.333 178.964 145.162 178.552 144.934 178.21C144.706 177.868 144.421 177.608 144.079 177.431C143.737 177.254 143.338 177.165 142.882 177.165C142.388 177.165 141.932 177.266 141.514 177.469C141.096 177.672 140.71 177.976 140.355 178.381C140.013 178.774 139.69 179.274 139.386 179.882V178.381C139.728 177.862 140.077 177.431 140.431 177.089C140.786 176.747 141.166 176.494 141.571 176.329C141.989 176.152 142.471 176.063 143.015 176.063C143.902 176.063 144.675 176.272 145.333 176.69C145.992 177.108 146.505 177.691 146.872 178.438C147.24 179.185 147.423 180.066 147.423 181.079C147.423 182.08 147.233 182.966 146.853 183.739C146.473 184.499 145.941 185.101 145.257 185.544C144.573 185.975 143.769 186.19 142.844 186.19ZM138.018 173.745C138.018 173.555 137.968 173.409 137.866 173.308C137.765 173.207 137.613 173.124 137.41 173.061C137.208 172.998 136.942 172.941 136.612 172.89L136.403 172.852V171.959H139.709V183.701L139.538 183.967L139.158 186.076H138.018V173.745ZM155.772 176.12V177.83C155.683 177.805 155.576 177.786 155.449 177.773C155.335 177.748 155.215 177.729 155.088 177.716C154.961 177.703 154.841 177.697 154.727 177.697C154.372 177.697 154.068 177.741 153.815 177.83C153.562 177.919 153.334 178.058 153.131 178.248C152.928 178.425 152.738 178.653 152.561 178.932C152.396 179.211 152.213 179.546 152.01 179.939V178.761C152.225 178.216 152.479 177.748 152.77 177.355C153.061 176.95 153.397 176.633 153.777 176.405C154.17 176.177 154.619 176.063 155.126 176.063C155.253 176.063 155.373 176.069 155.487 176.082C155.614 176.082 155.709 176.095 155.772 176.12ZM149.046 186V185.145H149.084C149.54 185.145 149.914 185.094 150.205 184.993C150.496 184.892 150.642 184.689 150.642 184.385V178.039C150.642 177.849 150.591 177.71 150.49 177.621C150.389 177.52 150.23 177.437 150.015 177.374C149.812 177.311 149.553 177.247 149.236 177.184L149.046 177.146V176.253H152.143L152.181 179.008L152.333 178.856V184.518C152.333 184.708 152.422 184.847 152.599 184.936C152.789 185.025 153.004 185.082 153.245 185.107C153.498 185.132 153.714 185.145 153.891 185.145H154.233V186H149.046ZM163.452 180.091V181.041C162.793 181.117 162.211 181.212 161.704 181.326C161.197 181.427 160.76 181.548 160.393 181.687C160.038 181.826 159.747 181.991 159.519 182.181C159.291 182.358 159.12 182.567 159.006 182.808C158.905 183.049 158.854 183.315 158.854 183.606C158.854 183.923 158.924 184.195 159.063 184.423C159.202 184.651 159.399 184.828 159.652 184.955C159.905 185.082 160.203 185.145 160.545 185.145C160.976 185.145 161.362 185.037 161.704 184.822C162.059 184.607 162.375 184.309 162.654 183.929C162.933 183.536 163.186 183.068 163.414 182.523V183.834C163.211 184.315 162.945 184.733 162.616 185.088C162.299 185.443 161.932 185.715 161.514 185.905C161.096 186.095 160.621 186.19 160.089 186.19C159.532 186.19 159.025 186.089 158.569 185.886C158.126 185.683 157.765 185.392 157.486 185.012C157.22 184.619 157.087 184.157 157.087 183.625C157.087 183.106 157.214 182.656 157.467 182.276C157.733 181.883 158.132 181.548 158.664 181.269C159.196 180.978 159.861 180.737 160.659 180.547C161.457 180.357 162.388 180.205 163.452 180.091ZM163.167 186L163.129 183.948L162.958 183.872V179.255C162.958 178.723 162.882 178.305 162.73 178.001C162.591 177.697 162.382 177.482 162.103 177.355C161.824 177.228 161.476 177.165 161.058 177.165C160.412 177.165 159.88 177.292 159.462 177.545C159.057 177.786 158.734 178.064 158.493 178.381C158.468 178.242 158.474 178.115 158.512 178.001C158.55 177.874 158.607 177.76 158.683 177.659C158.772 177.558 158.867 177.469 158.968 177.393C159.082 177.317 159.202 177.254 159.329 177.203V179.217H157.676V177.184C157.866 177.045 158.119 176.886 158.436 176.709C158.765 176.532 159.158 176.38 159.614 176.253C160.083 176.126 160.596 176.063 161.153 176.063C161.609 176.063 162.04 176.114 162.445 176.215C162.863 176.316 163.237 176.487 163.566 176.728C163.895 176.956 164.155 177.266 164.345 177.659C164.535 178.039 164.63 178.508 164.63 179.065V184.423C164.63 184.6 164.7 184.74 164.839 184.841C164.978 184.942 165.162 185.012 165.39 185.05C165.631 185.088 165.903 185.113 166.207 185.126H166.226V186H163.167ZM173.367 183.473C173.367 183.194 173.297 182.966 173.158 182.789C173.018 182.599 172.828 182.447 172.588 182.333C172.36 182.206 172.094 182.105 171.79 182.029C171.486 181.94 171.169 181.858 170.84 181.782C170.434 181.681 170.035 181.567 169.643 181.44C169.263 181.313 168.914 181.149 168.598 180.946C168.281 180.731 168.021 180.458 167.819 180.129C167.629 179.8 167.534 179.388 167.534 178.894C167.534 178.337 167.673 177.843 167.952 177.412C168.243 176.981 168.655 176.652 169.187 176.424C169.719 176.183 170.358 176.063 171.106 176.063C171.701 176.063 172.214 176.107 172.645 176.196C173.088 176.285 173.455 176.392 173.747 176.519C174.051 176.646 174.272 176.766 174.412 176.88V178.989H172.778V177.184C172.904 177.184 173.012 177.209 173.101 177.26C173.202 177.298 173.278 177.355 173.329 177.431C173.392 177.507 173.43 177.602 173.443 177.716C173.455 177.83 173.443 177.957 173.405 178.096C173.265 177.893 173.082 177.722 172.854 177.583C172.626 177.431 172.366 177.323 172.075 177.26C171.783 177.197 171.46 177.165 171.106 177.165C170.434 177.165 169.928 177.311 169.586 177.602C169.256 177.881 169.092 178.242 169.092 178.685C169.092 178.964 169.161 179.204 169.301 179.407C169.453 179.597 169.655 179.755 169.909 179.882C170.162 179.996 170.441 180.097 170.745 180.186C171.061 180.275 171.397 180.363 171.752 180.452C172.132 180.541 172.512 180.648 172.892 180.775C173.284 180.902 173.633 181.066 173.937 181.269C174.253 181.472 174.5 181.738 174.678 182.067C174.868 182.384 174.963 182.789 174.963 183.283C174.963 183.828 174.811 184.322 174.507 184.765C174.203 185.208 173.766 185.557 173.196 185.81C172.626 186.063 171.935 186.19 171.125 186.19C170.517 186.19 169.966 186.139 169.472 186.038C168.99 185.949 168.56 185.829 168.18 185.677C167.8 185.525 167.458 185.354 167.154 185.164V182.922H168.826V185.373C168.636 185.259 168.49 185.151 168.389 185.05C168.287 184.936 168.218 184.822 168.18 184.708C168.142 184.594 168.129 184.48 168.142 184.366C168.154 184.239 168.173 184.113 168.199 183.986C168.414 184.239 168.667 184.448 168.959 184.613C169.25 184.778 169.573 184.904 169.928 184.993C170.295 185.069 170.694 185.107 171.125 185.107C171.593 185.107 171.992 185.044 172.322 184.917C172.651 184.79 172.904 184.607 173.082 184.366C173.272 184.113 173.367 183.815 173.367 183.473ZM177.137 179.673H182.609V181.098H177.137V179.673ZM189.987 190.237H184.743V189.382H184.8C185.104 189.382 185.37 189.357 185.598 189.306C185.839 189.268 186.022 189.192 186.149 189.078C186.288 188.977 186.358 188.825 186.358 188.622V178.039C186.358 177.849 186.301 177.71 186.187 177.621C186.086 177.52 185.927 177.437 185.712 177.374C185.509 177.311 185.25 177.247 184.933 177.184L184.743 177.146V176.253H187.84L187.878 178.647L188.049 178.856V189.192C188.049 189.23 188.131 189.262 188.296 189.287C188.461 189.325 188.651 189.35 188.866 189.363C189.081 189.376 189.271 189.382 189.436 189.382H189.987V190.237ZM191.184 186.19C190.665 186.19 190.202 186.114 189.797 185.962C189.404 185.81 189.037 185.582 188.695 185.278C188.353 184.961 188.024 184.569 187.707 184.1L187.726 182.504C188.017 183.074 188.334 183.555 188.676 183.948C189.018 184.328 189.392 184.619 189.797 184.822C190.202 185.012 190.639 185.107 191.108 185.107C191.577 185.107 191.988 185.012 192.343 184.822C192.71 184.632 193.008 184.36 193.236 184.005C193.477 183.65 193.654 183.226 193.768 182.732C193.895 182.238 193.958 181.687 193.958 181.079C193.958 180.471 193.895 179.926 193.768 179.445C193.654 178.964 193.483 178.552 193.255 178.21C193.027 177.868 192.736 177.608 192.381 177.431C192.039 177.254 191.646 177.165 191.203 177.165C190.696 177.165 190.234 177.266 189.816 177.469C189.411 177.672 189.031 177.976 188.676 178.381C188.334 178.786 188.017 179.287 187.726 179.882L187.707 178.343C188.049 177.824 188.391 177.399 188.733 177.07C189.088 176.741 189.474 176.494 189.892 176.329C190.31 176.152 190.785 176.063 191.317 176.063C192.216 176.063 192.995 176.272 193.654 176.69C194.313 177.108 194.826 177.691 195.193 178.438C195.56 179.185 195.744 180.066 195.744 181.079C195.744 182.08 195.554 182.966 195.174 183.739C194.807 184.499 194.281 185.101 193.597 185.544C192.913 185.975 192.109 186.19 191.184 186.19ZM204.089 176.12V177.83C204 177.805 203.892 177.786 203.766 177.773C203.652 177.748 203.531 177.729 203.405 177.716C203.278 177.703 203.158 177.697 203.044 177.697C202.689 177.697 202.385 177.741 202.132 177.83C201.878 177.919 201.65 178.058 201.448 178.248C201.245 178.425 201.055 178.653 200.878 178.932C200.713 179.211 200.529 179.546 200.327 179.939V178.761C200.542 178.216 200.795 177.748 201.087 177.355C201.378 176.95 201.714 176.633 202.094 176.405C202.486 176.177 202.936 176.063 203.443 176.063C203.569 176.063 203.69 176.069 203.804 176.082C203.93 176.082 204.025 176.095 204.089 176.12ZM197.363 186V185.145H197.401C197.857 185.145 198.23 185.094 198.522 184.993C198.813 184.892 198.959 184.689 198.959 184.385V178.039C198.959 177.849 198.908 177.71 198.807 177.621C198.705 177.52 198.547 177.437 198.332 177.374C198.129 177.311 197.869 177.247 197.553 177.184L197.363 177.146V176.253H200.46L200.498 179.008L200.65 178.856V184.518C200.65 184.708 200.738 184.847 200.916 184.936C201.106 185.025 201.321 185.082 201.562 185.107C201.815 185.132 202.03 185.145 202.208 185.145H202.55V186H197.363ZM207.679 174.144C207.337 174.144 207.052 174.043 206.824 173.84C206.609 173.637 206.501 173.352 206.501 172.985C206.501 172.618 206.609 172.333 206.824 172.13C207.052 171.927 207.337 171.826 207.679 171.826C208.008 171.826 208.281 171.927 208.496 172.13C208.724 172.333 208.838 172.618 208.838 172.985C208.838 173.352 208.724 173.637 208.496 173.84C208.281 174.043 208.008 174.144 207.679 174.144ZM208.61 176.253V184.404C208.61 184.708 208.756 184.911 209.047 185.012C209.351 185.101 209.731 185.145 210.187 185.145H210.225V186H205.304V185.145H205.342C205.798 185.145 206.172 185.101 206.463 185.012C206.767 184.911 206.919 184.708 206.919 184.404V178.039C206.919 177.76 206.805 177.57 206.577 177.469C206.349 177.368 205.988 177.273 205.494 177.184L205.304 177.146V176.253H208.61ZM211.427 186V185.145H211.465C211.921 185.145 212.295 185.094 212.586 184.993C212.877 184.892 213.023 184.689 213.023 184.385V178.039C213.023 177.849 212.972 177.71 212.871 177.621C212.77 177.52 212.611 177.437 212.396 177.374C212.193 177.311 211.934 177.247 211.617 177.184L211.427 177.146V176.253H214.505L214.543 178.267L214.714 178.476V184.955C214.714 184.993 214.784 185.031 214.923 185.069C215.075 185.094 215.252 185.113 215.455 185.126C215.658 185.139 215.841 185.145 216.006 185.145H216.063V186H211.427ZM221.763 186H217.355V185.145H217.393C217.57 185.145 217.76 185.139 217.963 185.126C218.178 185.113 218.356 185.094 218.495 185.069C218.647 185.031 218.723 184.993 218.723 184.955V179.312C218.723 178.843 218.679 178.457 218.59 178.153C218.514 177.849 218.375 177.627 218.172 177.488C217.982 177.349 217.716 177.279 217.374 177.279C216.981 177.279 216.614 177.368 216.272 177.545C215.93 177.71 215.607 177.95 215.303 178.267C214.999 178.584 214.695 178.976 214.391 179.445V178.153C214.72 177.684 215.043 177.298 215.36 176.994C215.689 176.69 216.044 176.462 216.424 176.31C216.804 176.145 217.222 176.063 217.678 176.063C218.235 176.063 218.717 176.171 219.122 176.386C219.527 176.601 219.844 176.931 220.072 177.374C220.3 177.817 220.414 178.394 220.414 179.103V184.955C220.414 184.993 220.484 185.031 220.623 185.069C220.775 185.094 220.952 185.113 221.155 185.126C221.37 185.139 221.567 185.145 221.744 185.145H221.763V186ZM227.748 186H223.074V185.145H223.131C223.308 185.145 223.492 185.139 223.682 185.126C223.885 185.101 224.056 185.075 224.195 185.05C224.334 185.025 224.404 184.993 224.404 184.955V179.312C224.404 178.843 224.36 178.457 224.271 178.153C224.195 177.849 224.062 177.627 223.872 177.488C223.682 177.349 223.416 177.279 223.074 177.279C222.681 177.279 222.314 177.368 221.972 177.545C221.63 177.71 221.307 177.95 221.003 178.267C220.699 178.584 220.389 178.976 220.072 179.445V178.153C220.401 177.684 220.731 177.298 221.06 176.994C221.389 176.69 221.738 176.462 222.105 176.31C222.485 176.145 222.909 176.063 223.378 176.063C223.923 176.063 224.398 176.171 224.803 176.386C225.208 176.601 225.525 176.931 225.753 177.374C225.981 177.817 226.095 178.394 226.095 179.103V184.385C226.095 184.689 226.241 184.892 226.532 184.993C226.836 185.094 227.222 185.145 227.691 185.145H227.748V186ZM235.574 180.091V181.041C234.915 181.117 234.333 181.212 233.826 181.326C233.319 181.427 232.882 181.548 232.515 181.687C232.16 181.826 231.869 181.991 231.641 182.181C231.413 182.358 231.242 182.567 231.128 182.808C231.027 183.049 230.976 183.315 230.976 183.606C230.976 183.923 231.046 184.195 231.185 184.423C231.324 184.651 231.521 184.828 231.774 184.955C232.027 185.082 232.325 185.145 232.667 185.145C233.098 185.145 233.484 185.037 233.826 184.822C234.181 184.607 234.497 184.309 234.776 183.929C235.055 183.536 235.308 183.068 235.536 182.523V183.834C235.333 184.315 235.067 184.733 234.738 185.088C234.421 185.443 234.054 185.715 233.636 185.905C233.218 186.095 232.743 186.19 232.211 186.19C231.654 186.19 231.147 186.089 230.691 185.886C230.248 185.683 229.887 185.392 229.608 185.012C229.342 184.619 229.209 184.157 229.209 183.625C229.209 183.106 229.336 182.656 229.589 182.276C229.855 181.883 230.254 181.548 230.786 181.269C231.318 180.978 231.983 180.737 232.781 180.547C233.579 180.357 234.51 180.205 235.574 180.091ZM235.289 186L235.251 183.948L235.08 183.872V179.255C235.08 178.723 235.004 178.305 234.852 178.001C234.713 177.697 234.504 177.482 234.225 177.355C233.946 177.228 233.598 177.165 233.18 177.165C232.534 177.165 232.002 177.292 231.584 177.545C231.179 177.786 230.856 178.064 230.615 178.381C230.59 178.242 230.596 178.115 230.634 178.001C230.672 177.874 230.729 177.76 230.805 177.659C230.894 177.558 230.989 177.469 231.09 177.393C231.204 177.317 231.324 177.254 231.451 177.203V179.217H229.798V177.184C229.988 177.045 230.241 176.886 230.558 176.709C230.887 176.532 231.28 176.38 231.736 176.253C232.205 176.126 232.718 176.063 233.275 176.063C233.731 176.063 234.162 176.114 234.567 176.215C234.985 176.316 235.359 176.487 235.688 176.728C236.017 176.956 236.277 177.266 236.467 177.659C236.657 178.039 236.752 178.508 236.752 179.065V184.423C236.752 184.6 236.822 184.74 236.961 184.841C237.1 184.942 237.284 185.012 237.512 185.05C237.753 185.088 238.025 185.113 238.329 185.126H238.348V186H235.289ZM245.489 183.473C245.489 183.194 245.419 182.966 245.28 182.789C245.14 182.599 244.95 182.447 244.71 182.333C244.482 182.206 244.216 182.105 243.912 182.029C243.608 181.94 243.291 181.858 242.962 181.782C242.556 181.681 242.157 181.567 241.765 181.44C241.385 181.313 241.036 181.149 240.72 180.946C240.403 180.731 240.143 180.458 239.941 180.129C239.751 179.8 239.656 179.388 239.656 178.894C239.656 178.337 239.795 177.843 240.074 177.412C240.365 176.981 240.777 176.652 241.309 176.424C241.841 176.183 242.48 176.063 243.228 176.063C243.823 176.063 244.336 176.107 244.767 176.196C245.21 176.285 245.577 176.392 245.869 176.519C246.173 176.646 246.394 176.766 246.534 176.88V178.989H244.9V177.184C245.026 177.184 245.134 177.209 245.223 177.26C245.324 177.298 245.4 177.355 245.451 177.431C245.514 177.507 245.552 177.602 245.565 177.716C245.577 177.83 245.565 177.957 245.527 178.096C245.387 177.893 245.204 177.722 244.976 177.583C244.748 177.431 244.488 177.323 244.197 177.26C243.905 177.197 243.582 177.165 243.228 177.165C242.556 177.165 242.05 177.311 241.708 177.602C241.378 177.881 241.214 178.242 241.214 178.685C241.214 178.964 241.283 179.204 241.423 179.407C241.575 179.597 241.777 179.755 242.031 179.882C242.284 179.996 242.563 180.097 242.867 180.186C243.183 180.275 243.519 180.363 243.874 180.452C244.254 180.541 244.634 180.648 245.014 180.775C245.406 180.902 245.755 181.066 246.059 181.269C246.375 181.472 246.622 181.738 246.8 182.067C246.99 182.384 247.085 182.789 247.085 183.283C247.085 183.828 246.933 184.322 246.629 184.765C246.325 185.208 245.888 185.557 245.318 185.81C244.748 186.063 244.057 186.19 243.247 186.19C242.639 186.19 242.088 186.139 241.594 186.038C241.112 185.949 240.682 185.829 240.302 185.677C239.922 185.525 239.58 185.354 239.276 185.164V182.922H240.948V185.373C240.758 185.259 240.612 185.151 240.511 185.05C240.409 184.936 240.34 184.822 240.302 184.708C240.264 184.594 240.251 184.48 240.264 184.366C240.276 184.239 240.295 184.113 240.321 183.986C240.536 184.239 240.789 184.448 241.081 184.613C241.372 184.778 241.695 184.904 242.05 184.993C242.417 185.069 242.816 185.107 243.247 185.107C243.715 185.107 244.114 185.044 244.444 184.917C244.773 184.79 245.026 184.607 245.204 184.366C245.394 184.113 245.489 183.815 245.489 183.473ZM262.861 184.423C262.861 184.702 263.007 184.885 263.298 184.974C263.602 185.063 263.982 185.113 264.438 185.126H264.457V186H261.341L261.303 183.853L261.17 183.815V173.745C261.17 173.555 261.12 173.409 261.018 173.308C260.917 173.207 260.759 173.124 260.543 173.061C260.328 172.998 260.049 172.941 259.707 172.89L259.517 172.852V171.959H262.861V184.423ZM258.054 176.063C258.561 176.063 259.011 176.139 259.403 176.291C259.809 176.443 260.182 176.671 260.524 176.975C260.866 177.279 261.189 177.672 261.493 178.153V179.787C261.215 179.179 260.904 178.685 260.562 178.305C260.22 177.912 259.847 177.627 259.441 177.45C259.036 177.26 258.593 177.165 258.111 177.165C257.643 177.165 257.231 177.26 256.876 177.45C256.522 177.64 256.218 177.912 255.964 178.267C255.724 178.609 255.54 179.033 255.413 179.54C255.299 180.034 255.242 180.591 255.242 181.212C255.242 181.807 255.299 182.346 255.413 182.827C255.54 183.296 255.717 183.707 255.945 184.062C256.186 184.404 256.484 184.664 256.838 184.841C257.193 185.018 257.592 185.107 258.035 185.107C258.555 185.107 259.017 185.006 259.422 184.803C259.828 184.588 260.201 184.284 260.543 183.891C260.885 183.486 261.202 182.985 261.493 182.39V183.929C261.164 184.423 260.822 184.841 260.467 185.183C260.125 185.512 259.745 185.766 259.327 185.943C258.922 186.108 258.453 186.19 257.921 186.19C257.022 186.19 256.237 185.987 255.565 185.582C254.907 185.164 254.387 184.581 254.007 183.834C253.64 183.074 253.456 182.2 253.456 181.212C253.456 180.186 253.646 179.293 254.026 178.533C254.406 177.76 254.945 177.159 255.641 176.728C256.338 176.285 257.142 176.063 258.054 176.063ZM267.982 174.144C267.64 174.144 267.355 174.043 267.127 173.84C266.911 173.637 266.804 173.352 266.804 172.985C266.804 172.618 266.911 172.333 267.127 172.13C267.355 171.927 267.64 171.826 267.982 171.826C268.311 171.826 268.583 171.927 268.799 172.13C269.027 172.333 269.141 172.618 269.141 172.985C269.141 173.352 269.027 173.637 268.799 173.84C268.583 174.043 268.311 174.144 267.982 174.144ZM268.913 176.253V184.404C268.913 184.708 269.058 184.911 269.35 185.012C269.654 185.101 270.034 185.145 270.49 185.145H270.528V186H265.607V185.145H265.645C266.101 185.145 266.474 185.101 266.766 185.012C267.07 184.911 267.222 184.708 267.222 184.404V178.039C267.222 177.76 267.108 177.57 266.88 177.469C266.652 177.368 266.291 177.273 265.797 177.184L265.607 177.146V176.253H268.913ZM281.857 177.564C281.299 177.526 280.818 177.507 280.413 177.507C280.02 177.507 279.691 177.545 279.425 177.621C279.171 177.697 278.956 177.836 278.779 178.039L278.532 177.792C278.709 177.412 278.912 177.089 279.14 176.823C279.38 176.557 279.64 176.342 279.919 176.177C280.197 176.012 280.495 175.905 280.812 175.854C281.141 175.791 281.489 175.778 281.857 175.816V177.564ZM276.214 183.093C275.479 183.093 274.82 182.954 274.238 182.675C273.655 182.384 273.199 181.978 272.87 181.459C272.54 180.927 272.376 180.313 272.376 179.616C272.376 178.907 272.54 178.292 272.87 177.773C273.212 177.241 273.674 176.823 274.257 176.519C274.839 176.215 275.492 176.063 276.214 176.063C276.961 176.063 277.626 176.215 278.209 176.519C278.791 176.823 279.247 177.241 279.577 177.773C279.919 178.292 280.09 178.907 280.09 179.616C280.09 180.313 279.919 180.927 279.577 181.459C279.247 181.978 278.791 182.384 278.209 182.675C277.626 182.954 276.961 183.093 276.214 183.093ZM276.214 181.991C276.67 181.991 277.062 181.902 277.392 181.725C277.721 181.535 277.974 181.263 278.152 180.908C278.329 180.553 278.418 180.123 278.418 179.616C278.418 179.097 278.329 178.66 278.152 178.305C277.974 177.938 277.721 177.659 277.392 177.469C277.062 177.266 276.67 177.165 276.214 177.165C275.783 177.165 275.403 177.266 275.074 177.469C274.744 177.659 274.491 177.938 274.314 178.305C274.136 178.66 274.048 179.097 274.048 179.616C274.048 180.123 274.136 180.553 274.314 180.908C274.491 181.263 274.744 181.535 275.074 181.725C275.403 181.902 275.783 181.991 276.214 181.991ZM275.853 190.503C275.004 190.503 274.238 190.421 273.554 190.256C272.882 190.104 272.35 189.844 271.958 189.477C271.565 189.122 271.369 188.641 271.369 188.033C271.369 187.729 271.445 187.444 271.597 187.178C271.761 186.925 272.002 186.684 272.319 186.456C272.648 186.228 273.06 186 273.554 185.772L274.238 186.247C273.921 186.412 273.661 186.583 273.459 186.76C273.256 186.937 273.104 187.121 273.003 187.311C272.914 187.514 272.87 187.723 272.87 187.938C272.87 188.242 272.971 188.495 273.174 188.698C273.389 188.913 273.718 189.078 274.162 189.192C274.605 189.306 275.175 189.363 275.872 189.363H276.689C277.347 189.363 277.924 189.281 278.418 189.116C278.912 188.964 279.298 188.749 279.577 188.47C279.855 188.191 279.995 187.868 279.995 187.501C279.995 187.134 279.855 186.868 279.577 186.703C279.311 186.551 278.817 186.475 278.095 186.475H273.82H273.744C273.326 186.272 272.984 186.076 272.718 185.886C272.464 185.696 272.281 185.493 272.167 185.278C272.065 185.05 272.015 184.809 272.015 184.556C272.015 184.239 272.091 183.948 272.243 183.682C272.407 183.416 272.642 183.156 272.946 182.903C273.25 182.65 273.636 182.415 274.105 182.2L274.808 182.694C274.542 182.833 274.314 182.979 274.124 183.131C273.946 183.27 273.807 183.416 273.706 183.568C273.617 183.72 273.573 183.885 273.573 184.062C273.573 184.328 273.706 184.524 273.972 184.651C274.238 184.778 274.624 184.841 275.131 184.841H278.133C278.88 184.841 279.507 184.93 280.014 185.107C280.52 185.272 280.907 185.531 281.173 185.886C281.439 186.228 281.572 186.671 281.572 187.216C281.572 187.963 281.344 188.578 280.888 189.059C280.444 189.553 279.855 189.914 279.121 190.142C278.386 190.383 277.582 190.503 276.708 190.503H275.853ZM285.108 174.144C284.766 174.144 284.481 174.043 284.253 173.84C284.037 173.637 283.93 173.352 283.93 172.985C283.93 172.618 284.037 172.333 284.253 172.13C284.481 171.927 284.766 171.826 285.108 171.826C285.437 171.826 285.709 171.927 285.925 172.13C286.153 172.333 286.267 172.618 286.267 172.985C286.267 173.352 286.153 173.637 285.925 173.84C285.709 174.043 285.437 174.144 285.108 174.144ZM286.039 176.253V184.404C286.039 184.708 286.184 184.911 286.476 185.012C286.78 185.101 287.16 185.145 287.616 185.145H287.654V186H282.733V185.145H282.771C283.227 185.145 283.6 185.101 283.892 185.012C284.196 184.911 284.348 184.708 284.348 184.404V178.039C284.348 177.76 284.234 177.57 284.006 177.469C283.778 177.368 283.417 177.273 282.923 177.184L282.733 177.146V176.253H286.039ZM288.286 177.355V176.348H288.4C288.792 176.348 289.122 176.323 289.388 176.272C289.666 176.221 289.875 176.126 290.015 175.987C290.154 175.835 290.224 175.626 290.224 175.36L291.459 176.253H294.727V177.355H288.286ZM291.782 182.732C291.782 183.277 291.851 183.72 291.991 184.062C292.143 184.404 292.352 184.657 292.618 184.822C292.896 184.974 293.219 185.05 293.587 185.05C293.865 185.05 294.119 185.025 294.347 184.974C294.587 184.923 294.784 184.873 294.936 184.822V185.905C294.822 185.956 294.682 186 294.518 186.038C294.353 186.089 294.176 186.127 293.986 186.152C293.808 186.177 293.618 186.19 293.416 186.19C292.858 186.19 292.32 186.095 291.801 185.905C291.294 185.702 290.882 185.354 290.566 184.86C290.249 184.353 290.091 183.65 290.091 182.751V176.557L290.224 176.424V173.555H291.782V182.732ZM302.649 180.091V181.041C301.991 181.117 301.408 181.212 300.901 181.326C300.395 181.427 299.958 181.548 299.59 181.687C299.236 181.826 298.944 181.991 298.716 182.181C298.488 182.358 298.317 182.567 298.203 182.808C298.102 183.049 298.051 183.315 298.051 183.606C298.051 183.923 298.121 184.195 298.26 184.423C298.4 184.651 298.596 184.828 298.849 184.955C299.103 185.082 299.4 185.145 299.742 185.145C300.173 185.145 300.559 185.037 300.901 184.822C301.256 184.607 301.573 184.309 301.851 183.929C302.13 183.536 302.383 183.068 302.611 182.523V183.834C302.409 184.315 302.143 184.733 301.813 185.088C301.497 185.443 301.129 185.715 300.711 185.905C300.293 186.095 299.818 186.19 299.286 186.19C298.729 186.19 298.222 186.089 297.766 185.886C297.323 185.683 296.962 185.392 296.683 185.012C296.417 184.619 296.284 184.157 296.284 183.625C296.284 183.106 296.411 182.656 296.664 182.276C296.93 181.883 297.329 181.548 297.861 181.269C298.393 180.978 299.058 180.737 299.856 180.547C300.654 180.357 301.585 180.205 302.649 180.091ZM302.364 186L302.326 183.948L302.155 183.872V179.255C302.155 178.723 302.079 178.305 301.927 178.001C301.788 177.697 301.579 177.482 301.3 177.355C301.022 177.228 300.673 177.165 300.255 177.165C299.609 177.165 299.077 177.292 298.659 177.545C298.254 177.786 297.931 178.064 297.69 178.381C297.665 178.242 297.671 178.115 297.709 178.001C297.747 177.874 297.804 177.76 297.88 177.659C297.969 177.558 298.064 177.469 298.165 177.393C298.279 177.317 298.4 177.254 298.526 177.203V179.217H296.873V177.184C297.063 177.045 297.317 176.886 297.633 176.709C297.963 176.532 298.355 176.38 298.811 176.253C299.28 176.126 299.793 176.063 300.35 176.063C300.806 176.063 301.237 176.114 301.642 176.215C302.06 176.316 302.434 176.487 302.763 176.728C303.093 176.956 303.352 177.266 303.542 177.659C303.732 178.039 303.827 178.508 303.827 179.065V184.423C303.827 184.6 303.897 184.74 304.036 184.841C304.176 184.942 304.359 185.012 304.587 185.05C304.828 185.088 305.1 185.113 305.404 185.126H305.423V186H302.364ZM308.802 174.144C308.46 174.144 308.175 174.043 307.947 173.84C307.732 173.637 307.624 173.352 307.624 172.985C307.624 172.618 307.732 172.333 307.947 172.13C308.175 171.927 308.46 171.826 308.802 171.826C309.131 171.826 309.404 171.927 309.619 172.13C309.847 172.333 309.961 172.618 309.961 172.985C309.961 173.352 309.847 173.637 309.619 173.84C309.404 174.043 309.131 174.144 308.802 174.144ZM309.733 176.253V184.404C309.733 184.708 309.879 184.911 310.17 185.012C310.474 185.101 310.854 185.145 311.31 185.145H311.348V186H306.427V185.145H306.465C306.921 185.145 307.295 185.101 307.586 185.012C307.89 184.911 308.042 184.708 308.042 184.404V178.039C308.042 177.76 307.928 177.57 307.7 177.469C307.472 177.368 307.111 177.273 306.617 177.184L306.427 177.146V176.253H309.733ZM318.78 183.473C318.78 183.194 318.71 182.966 318.571 182.789C318.431 182.599 318.241 182.447 318.001 182.333C317.773 182.206 317.507 182.105 317.203 182.029C316.899 181.94 316.582 181.858 316.253 181.782C315.847 181.681 315.448 181.567 315.056 181.44C314.676 181.313 314.327 181.149 314.011 180.946C313.694 180.731 313.434 180.458 313.232 180.129C313.042 179.8 312.947 179.388 312.947 178.894C312.947 178.337 313.086 177.843 313.365 177.412C313.656 176.981 314.068 176.652 314.6 176.424C315.132 176.183 315.771 176.063 316.519 176.063C317.114 176.063 317.627 176.107 318.058 176.196C318.501 176.285 318.868 176.392 319.16 176.519C319.464 176.646 319.685 176.766 319.825 176.88V178.989H318.191V177.184C318.317 177.184 318.425 177.209 318.514 177.26C318.615 177.298 318.691 177.355 318.742 177.431C318.805 177.507 318.843 177.602 318.856 177.716C318.868 177.83 318.856 177.957 318.818 178.096C318.678 177.893 318.495 177.722 318.267 177.583C318.039 177.431 317.779 177.323 317.488 177.26C317.196 177.197 316.873 177.165 316.519 177.165C315.847 177.165 315.341 177.311 314.999 177.602C314.669 177.881 314.505 178.242 314.505 178.685C314.505 178.964 314.574 179.204 314.714 179.407C314.866 179.597 315.068 179.755 315.322 179.882C315.575 179.996 315.854 180.097 316.158 180.186C316.474 180.275 316.81 180.363 317.165 180.452C317.545 180.541 317.925 180.648 318.305 180.775C318.697 180.902 319.046 181.066 319.35 181.269C319.666 181.472 319.913 181.738 320.091 182.067C320.281 182.384 320.376 182.789 320.376 183.283C320.376 183.828 320.224 184.322 319.92 184.765C319.616 185.208 319.179 185.557 318.609 185.81C318.039 186.063 317.348 186.19 316.538 186.19C315.93 186.19 315.379 186.139 314.885 186.038C314.403 185.949 313.973 185.829 313.593 185.677C313.213 185.525 312.871 185.354 312.567 185.164V182.922H314.239V185.373C314.049 185.259 313.903 185.151 313.802 185.05C313.7 184.936 313.631 184.822 313.593 184.708C313.555 184.594 313.542 184.48 313.555 184.366C313.567 184.239 313.586 184.113 313.612 183.986C313.827 184.239 314.08 184.448 314.372 184.613C314.663 184.778 314.986 184.904 315.341 184.993C315.708 185.069 316.107 185.107 316.538 185.107C317.006 185.107 317.405 185.044 317.735 184.917C318.064 184.79 318.317 184.607 318.495 184.366C318.685 184.113 318.78 183.815 318.78 183.473Z" fill="#D7D4D4"/>
<path d="M4.39746 117.477H15.7251C18.3599 117.477 20.5679 117.94 22.3491 118.868C24.1489 119.796 25.5034 121.169 26.4126 122.987C27.3403 124.787 27.8042 127.004 27.8042 129.639C27.8042 131.495 27.498 133.192 26.8857 134.732C26.2734 136.254 25.3828 137.553 24.2139 138.629C23.0449 139.687 21.6255 140.475 19.9556 140.995L18.564 141.579H8.46094L8.40527 137.209H15.6694C17.228 137.209 18.5269 136.875 19.5659 136.208C20.605 135.521 21.3843 134.603 21.9038 133.452C22.4233 132.302 22.6831 131.031 22.6831 129.639C22.6831 128.081 22.4512 126.717 21.9873 125.548C21.5234 124.379 20.7812 123.479 19.7607 122.848C18.7588 122.199 17.4136 121.874 15.7251 121.874H9.51855V158H4.39746V117.477ZM23.8521 158L15.7808 139.631L21.0967 139.603L29.335 157.666V158H23.8521ZM48.7339 152.851V136.514C48.7339 135.326 48.5483 134.371 48.1772 133.647C47.8247 132.923 47.2866 132.395 46.563 132.061C45.8579 131.727 44.9673 131.56 43.8911 131.56C42.8521 131.56 41.9521 131.773 41.1914 132.2C40.4492 132.626 39.874 133.192 39.4658 133.897C39.0762 134.603 38.8813 135.382 38.8813 136.235H33.9551C33.9551 135.159 34.187 134.092 34.6509 133.035C35.1333 131.977 35.8198 131.021 36.7104 130.168C37.6011 129.296 38.668 128.609 39.9111 128.108C41.1729 127.589 42.583 127.329 44.1416 127.329C45.9971 127.329 47.6392 127.635 49.0679 128.248C50.4966 128.841 51.6191 129.815 52.4355 131.17C53.252 132.524 53.6602 134.324 53.6602 136.569V151.432C53.6602 152.434 53.7344 153.5 53.8828 154.632C54.0498 155.764 54.2817 156.738 54.5786 157.555V158H49.4854C49.2441 157.406 49.0586 156.618 48.9287 155.634C48.7988 154.632 48.7339 153.705 48.7339 152.851ZM49.5132 139.742L49.5688 143.36H46.1455C44.9766 143.36 43.9097 143.49 42.9448 143.75C41.9985 144.01 41.1821 144.39 40.4956 144.891C39.8091 145.374 39.2803 145.977 38.9092 146.7C38.5566 147.424 38.3804 148.25 38.3804 149.177C38.3804 150.383 38.5474 151.348 38.8813 152.072C39.2153 152.777 39.7163 153.287 40.3843 153.603C41.0522 153.918 41.8965 154.076 42.917 154.076C44.1602 154.076 45.2549 153.788 46.2012 153.213C47.1475 152.638 47.8804 151.942 48.3999 151.125C48.938 150.309 49.1885 149.548 49.1514 148.843L50.2368 151.153C50.1626 151.877 49.9214 152.666 49.5132 153.519C49.1235 154.354 48.5762 155.161 47.8711 155.94C47.166 156.701 46.3311 157.332 45.3662 157.833C44.4199 158.315 43.353 158.557 42.1655 158.557C40.4214 158.557 38.8906 158.223 37.5732 157.555C36.2744 156.887 35.2632 155.903 34.5396 154.604C33.8159 153.306 33.4541 151.701 33.4541 149.79C33.4541 148.342 33.7046 147.006 34.2056 145.782C34.7065 144.557 35.4487 143.5 36.4321 142.609C37.4155 141.7 38.6494 140.995 40.1338 140.494C41.6367 139.993 43.3716 139.742 45.3384 139.742H49.5132ZM66.2402 133.87V158H61.3418V127.886H65.9619L66.2402 133.87ZM65.2383 141.802L62.9561 141.718C62.9375 139.659 63.1416 137.757 63.5684 136.013C63.9951 134.25 64.6353 132.719 65.4888 131.42C66.3608 130.122 67.4463 129.12 68.7451 128.415C70.0625 127.691 71.5933 127.329 73.3374 127.329C74.4878 127.329 75.5547 127.533 76.5381 127.941C77.54 128.331 78.4121 128.953 79.1543 129.806C79.8965 130.66 80.4717 131.754 80.8799 133.09C81.3066 134.426 81.52 136.041 81.52 137.933V158H76.5938V138.184C76.5938 136.606 76.3804 135.345 75.9536 134.398C75.5454 133.452 74.9609 132.766 74.2002 132.339C73.4395 131.894 72.5303 131.671 71.4727 131.671C70.2666 131.671 69.2554 131.94 68.439 132.478C67.6411 133.016 67.001 133.758 66.5186 134.705C66.0547 135.651 65.7207 136.736 65.5166 137.961C65.3311 139.167 65.2383 140.447 65.2383 141.802ZM81.4644 138.963L78.1802 140.021C78.1616 138.369 78.3657 136.783 78.7925 135.261C79.2192 133.74 79.8501 132.385 80.6851 131.198C81.5386 130.01 82.5962 129.073 83.8579 128.387C85.1196 127.682 86.5854 127.329 88.2554 127.329C89.6284 127.329 90.8438 127.542 91.9014 127.969C92.959 128.396 93.8496 129.055 94.5732 129.945C95.3154 130.817 95.8721 131.94 96.2432 133.313C96.6143 134.686 96.7998 136.319 96.7998 138.211V158H91.8735V138.156C91.8735 136.467 91.6602 135.159 91.2334 134.231C90.8252 133.285 90.2407 132.626 89.48 132.255C88.7192 131.866 87.8101 131.671 86.7524 131.671C85.8989 131.671 85.1382 131.866 84.4702 132.255C83.8208 132.645 83.2734 133.183 82.8281 133.87C82.3828 134.538 82.0396 135.308 81.7983 136.18C81.5757 137.052 81.4644 137.979 81.4644 138.963ZM103.201 144.39V141.523C103.201 139.186 103.498 137.135 104.092 135.373C104.686 133.591 105.511 132.107 106.569 130.919C107.626 129.732 108.86 128.841 110.271 128.248C111.681 127.635 113.193 127.329 114.807 127.329C116.458 127.329 117.989 127.635 119.399 128.248C120.81 128.841 122.043 129.732 123.101 130.919C124.177 132.107 125.012 133.591 125.606 135.373C126.2 137.135 126.497 139.186 126.497 141.523V144.39C126.497 146.728 126.2 148.788 125.606 150.569C125.012 152.332 124.187 153.807 123.129 154.994C122.071 156.182 120.837 157.072 119.427 157.666C118.017 158.26 116.496 158.557 114.863 158.557C113.23 158.557 111.708 158.26 110.298 157.666C108.888 157.072 107.645 156.182 106.569 154.994C105.511 153.807 104.686 152.332 104.092 150.569C103.498 148.788 103.201 146.728 103.201 144.39ZM108.127 141.523V144.39C108.127 146.042 108.294 147.489 108.628 148.732C108.962 149.975 109.436 151.014 110.048 151.849C110.66 152.684 111.375 153.315 112.191 153.742C113.007 154.15 113.898 154.354 114.863 154.354C115.976 154.354 116.95 154.15 117.785 153.742C118.639 153.315 119.344 152.684 119.9 151.849C120.457 151.014 120.875 149.975 121.153 148.732C121.431 147.489 121.57 146.042 121.57 144.39V141.523C121.57 139.872 121.403 138.434 121.069 137.209C120.735 135.966 120.262 134.927 119.65 134.092C119.038 133.239 118.314 132.608 117.479 132.2C116.663 131.773 115.772 131.56 114.807 131.56C113.861 131.56 112.979 131.773 112.163 132.2C111.347 132.608 110.632 133.239 110.02 134.092C109.426 134.927 108.962 135.966 108.628 137.209C108.294 138.434 108.127 139.872 108.127 141.523ZM137.769 134.315V158H132.842V127.886H137.49L137.769 134.315ZM136.572 141.802L134.568 141.718C134.549 139.659 134.781 137.757 135.264 136.013C135.765 134.25 136.47 132.719 137.379 131.42C138.307 130.122 139.411 129.12 140.691 128.415C141.971 127.691 143.391 127.329 144.949 127.329C146.174 127.329 147.287 127.533 148.289 127.941C149.291 128.331 150.145 128.962 150.85 129.834C151.555 130.706 152.093 131.838 152.464 133.229C152.854 134.603 153.048 136.282 153.048 138.267V158H148.122V138.211C148.122 136.634 147.946 135.373 147.593 134.426C147.259 133.461 146.74 132.766 146.035 132.339C145.348 131.894 144.476 131.671 143.418 131.671C142.454 131.671 141.554 131.94 140.719 132.478C139.884 133.016 139.151 133.758 138.52 134.705C137.908 135.651 137.425 136.736 137.073 137.961C136.739 139.167 136.572 140.447 136.572 141.802ZM176.232 152.155V115.25H181.131V158H176.65L176.232 152.155ZM159.394 144.39V141.579C159.394 139.093 159.635 136.959 160.118 135.178C160.6 133.378 161.287 131.903 162.177 130.752C163.068 129.583 164.135 128.721 165.378 128.164C166.621 127.607 167.994 127.329 169.497 127.329C171.056 127.329 172.392 127.645 173.505 128.275C174.637 128.906 175.583 129.825 176.344 131.031C177.104 132.218 177.698 133.666 178.125 135.373C178.57 137.061 178.867 138.972 179.016 141.106V144.863C178.849 146.979 178.542 148.88 178.097 150.569C177.67 152.257 177.077 153.695 176.316 154.883C175.555 156.07 174.609 156.979 173.477 157.61C172.345 158.241 171 158.557 169.441 158.557C167.957 158.557 166.603 158.269 165.378 157.694C164.153 157.1 163.086 156.219 162.177 155.05C161.287 153.862 160.6 152.387 160.118 150.625C159.635 148.843 159.394 146.765 159.394 144.39ZM164.32 141.579V144.39C164.32 146.06 164.441 147.517 164.682 148.76C164.923 149.984 165.304 151.005 165.823 151.821C166.343 152.619 167.001 153.213 167.799 153.603C168.616 153.992 169.59 154.187 170.722 154.187C172.095 154.187 173.217 153.853 174.089 153.185C174.961 152.517 175.657 151.636 176.177 150.541C176.715 149.428 177.142 148.231 177.457 146.951V139.046C177.271 138.1 177.002 137.191 176.65 136.319C176.297 135.428 175.852 134.64 175.314 133.953C174.794 133.248 174.154 132.691 173.394 132.283C172.651 131.875 171.779 131.671 170.777 131.671C169.646 131.671 168.662 131.875 167.827 132.283C167.011 132.691 166.343 133.304 165.823 134.12C165.322 134.937 164.942 135.966 164.682 137.209C164.441 138.453 164.32 139.909 164.32 141.579ZM207.599 117.477V158H202.478V117.477H207.599ZM221.265 135.707V140.104H206.625V135.707H221.265ZM223.575 117.477V121.874H206.625V117.477H223.575ZM243.057 152.851V136.514C243.057 135.326 242.872 134.371 242.5 133.647C242.148 132.923 241.61 132.395 240.886 132.061C240.181 131.727 239.291 131.56 238.214 131.56C237.175 131.56 236.275 131.773 235.515 132.2C234.772 132.626 234.197 133.192 233.789 133.897C233.399 134.603 233.205 135.382 233.205 136.235H228.278C228.278 135.159 228.51 134.092 228.974 133.035C229.457 131.977 230.143 131.021 231.034 130.168C231.924 129.296 232.991 128.609 234.234 128.108C235.496 127.589 236.906 127.329 238.465 127.329C240.32 127.329 241.962 127.635 243.391 128.248C244.82 128.841 245.942 129.815 246.759 131.17C247.575 132.524 247.983 134.324 247.983 136.569V151.432C247.983 152.434 248.058 153.5 248.206 154.632C248.373 155.764 248.605 156.738 248.902 157.555V158H243.809C243.567 157.406 243.382 156.618 243.252 155.634C243.122 154.632 243.057 153.705 243.057 152.851ZM243.836 139.742L243.892 143.36H240.469C239.3 143.36 238.233 143.49 237.268 143.75C236.322 144.01 235.505 144.39 234.819 144.891C234.132 145.374 233.604 145.977 233.232 146.7C232.88 147.424 232.704 148.25 232.704 149.177C232.704 150.383 232.871 151.348 233.205 152.072C233.539 152.777 234.04 153.287 234.708 153.603C235.375 153.918 236.22 154.076 237.24 154.076C238.483 154.076 239.578 153.788 240.524 153.213C241.471 152.638 242.204 151.942 242.723 151.125C243.261 150.309 243.512 149.548 243.475 148.843L244.56 151.153C244.486 151.877 244.245 152.666 243.836 153.519C243.447 154.354 242.899 155.161 242.194 155.94C241.489 156.701 240.654 157.332 239.689 157.833C238.743 158.315 237.676 158.557 236.489 158.557C234.745 158.557 233.214 158.223 231.896 157.555C230.598 156.887 229.586 155.903 228.863 154.604C228.139 153.306 227.777 151.701 227.777 149.79C227.777 148.342 228.028 147.006 228.529 145.782C229.03 144.557 229.772 143.5 230.755 142.609C231.739 141.7 232.973 140.995 234.457 140.494C235.96 139.993 237.695 139.742 239.662 139.742H243.836ZM260.925 115.25V158H256.027V115.25H260.925ZM279.155 154.354C280.139 154.354 281.029 154.159 281.827 153.77C282.644 153.361 283.312 152.73 283.831 151.877C284.351 151.005 284.647 149.873 284.722 148.481H289.342C289.268 150.485 288.757 152.248 287.811 153.77C286.883 155.272 285.659 156.451 284.137 157.304C282.634 158.139 280.974 158.557 279.155 158.557C277.207 158.557 275.509 158.241 274.062 157.61C272.633 156.979 271.446 156.07 270.5 154.883C269.572 153.677 268.876 152.22 268.412 150.513C267.948 148.788 267.716 146.83 267.716 144.641V141.245C267.716 139.056 267.948 137.107 268.412 135.4C268.876 133.675 269.572 132.218 270.5 131.031C271.446 129.825 272.633 128.906 274.062 128.275C275.509 127.645 277.207 127.329 279.155 127.329C281.196 127.329 282.959 127.765 284.443 128.637C285.946 129.491 287.115 130.734 287.95 132.367C288.804 133.981 289.268 135.938 289.342 138.239H284.722C284.647 136.755 284.378 135.521 283.915 134.538C283.451 133.536 282.82 132.793 282.022 132.311C281.224 131.81 280.269 131.56 279.155 131.56C277.856 131.56 276.78 131.792 275.927 132.255C275.092 132.701 274.433 133.35 273.951 134.204C273.468 135.057 273.125 136.078 272.921 137.265C272.735 138.453 272.643 139.779 272.643 141.245V144.641C272.643 146.106 272.735 147.442 272.921 148.648C273.125 149.836 273.459 150.856 273.923 151.71C274.405 152.563 275.073 153.222 275.927 153.686C276.78 154.131 277.856 154.354 279.155 154.354ZM309.798 152.851V136.514C309.798 135.326 309.613 134.371 309.242 133.647C308.889 132.923 308.351 132.395 307.627 132.061C306.922 131.727 306.032 131.56 304.956 131.56C303.917 131.56 303.017 131.773 302.256 132.2C301.514 132.626 300.938 133.192 300.53 133.897C300.141 134.603 299.946 135.382 299.946 136.235H295.02C295.02 135.159 295.251 134.092 295.715 133.035C296.198 131.977 296.884 131.021 297.775 130.168C298.666 129.296 299.732 128.609 300.976 128.108C302.237 127.589 303.647 127.329 305.206 127.329C307.062 127.329 308.704 127.635 310.132 128.248C311.561 128.841 312.684 129.815 313.5 131.17C314.316 132.524 314.725 134.324 314.725 136.569V151.432C314.725 152.434 314.799 153.5 314.947 154.632C315.114 155.764 315.346 156.738 315.643 157.555V158H310.55C310.309 157.406 310.123 156.618 309.993 155.634C309.863 154.632 309.798 153.705 309.798 152.851ZM310.578 139.742L310.633 143.36H307.21C306.041 143.36 304.974 143.49 304.009 143.75C303.063 144.01 302.247 144.39 301.56 144.891C300.874 145.374 300.345 145.977 299.974 146.7C299.621 147.424 299.445 148.25 299.445 149.177C299.445 150.383 299.612 151.348 299.946 152.072C300.28 152.777 300.781 153.287 301.449 153.603C302.117 153.918 302.961 154.076 303.981 154.076C305.225 154.076 306.319 153.788 307.266 153.213C308.212 152.638 308.945 151.942 309.464 151.125C310.002 150.309 310.253 149.548 310.216 148.843L311.301 151.153C311.227 151.877 310.986 152.666 310.578 153.519C310.188 154.354 309.641 155.161 308.936 155.94C308.23 156.701 307.396 157.332 306.431 157.833C305.484 158.315 304.417 158.557 303.23 158.557C301.486 158.557 299.955 158.223 298.638 157.555C297.339 156.887 296.328 155.903 295.604 154.604C294.88 153.306 294.519 151.701 294.519 149.79C294.519 148.342 294.769 147.006 295.27 145.782C295.771 144.557 296.513 143.5 297.497 142.609C298.48 141.7 299.714 140.995 301.198 140.494C302.701 139.993 304.436 139.742 306.403 139.742H310.578ZM310.717 115.807L313.917 116.113C313.917 117.467 313.686 118.655 313.222 119.675C312.758 120.696 312.127 121.484 311.329 122.041C310.55 122.598 309.678 122.876 308.713 122.876C307.934 122.876 307.284 122.746 306.765 122.486C306.245 122.208 305.781 121.902 305.373 121.568C304.983 121.215 304.566 120.909 304.121 120.649C303.694 120.371 303.156 120.232 302.506 120.232C301.875 120.232 301.347 120.529 300.92 121.123C300.493 121.716 300.28 122.449 300.28 123.321L297.079 123.154C297.079 121.8 297.302 120.612 297.747 119.592C298.211 118.553 298.833 117.746 299.612 117.17C300.41 116.577 301.291 116.28 302.256 116.28C302.905 116.28 303.48 116.419 303.981 116.697C304.482 116.957 304.956 117.263 305.401 117.616C305.846 117.95 306.31 118.256 306.792 118.534C307.293 118.794 307.85 118.924 308.462 118.924C309.093 118.924 309.622 118.627 310.049 118.033C310.494 117.421 310.717 116.679 310.717 115.807ZM321.349 144.39V141.523C321.349 139.186 321.646 137.135 322.239 135.373C322.833 133.591 323.659 132.107 324.716 130.919C325.774 129.732 327.008 128.841 328.418 128.248C329.828 127.635 331.34 127.329 332.955 127.329C334.606 127.329 336.137 127.635 337.547 128.248C338.957 128.841 340.191 129.732 341.249 130.919C342.325 132.107 343.16 133.591 343.753 135.373C344.347 137.135 344.644 139.186 344.644 141.523V144.39C344.644 146.728 344.347 148.788 343.753 150.569C343.16 152.332 342.334 153.807 341.276 154.994C340.219 156.182 338.985 157.072 337.575 157.666C336.165 158.26 334.643 158.557 333.01 158.557C331.377 158.557 329.856 158.26 328.446 157.666C327.036 157.072 325.792 156.182 324.716 154.994C323.659 153.807 322.833 152.332 322.239 150.569C321.646 148.788 321.349 146.728 321.349 144.39ZM326.275 141.523V144.39C326.275 146.042 326.442 147.489 326.776 148.732C327.11 149.975 327.583 151.014 328.195 151.849C328.808 152.684 329.522 153.315 330.338 153.742C331.155 154.15 332.045 154.354 333.01 154.354C334.124 154.354 335.098 154.15 335.933 153.742C336.786 153.315 337.491 152.684 338.048 151.849C338.604 151.014 339.022 149.975 339.3 148.732C339.579 147.489 339.718 146.042 339.718 144.39V141.523C339.718 139.872 339.551 138.434 339.217 137.209C338.883 135.966 338.41 134.927 337.797 134.092C337.185 133.239 336.461 132.608 335.626 132.2C334.81 131.773 333.919 131.56 332.955 131.56C332.008 131.56 331.127 131.773 330.311 132.2C329.494 132.608 328.78 133.239 328.167 134.092C327.574 134.927 327.11 135.966 326.776 137.209C326.442 138.434 326.275 139.872 326.275 141.523Z" fill="#EDEDED"/>
<line y1="-2.5" x2="50.2106" y2="-2.5" transform="matrix(-0.763206 0.646155 -0.651593 -0.758569 153.404 21.9543)" stroke="#0D39D3" stroke-width="5"/>
<line y1="-2.5" x2="50.1727" y2="-2.5" transform="matrix(0.691622 0.72226 -0.72724 0.686383 114.828 55.5297)" stroke="#0D39D3" stroke-width="5"/>
<line y1="-2.5" x2="50.201" y2="-2.5" transform="matrix(0.745648 -0.66634 0.671689 0.740833 189.366 91.8455)" stroke="#0D39D3" stroke-width="5"/>
<line y1="-2.5" x2="50.1825" y2="-2.5" transform="matrix(-0.710716 -0.703479 0.708605 -0.705606 227.022 57.2566)" stroke="#0D39D3" stroke-width="5"/>
<path d="M189.007 1L155.767 105" stroke="#0D39D3" stroke-width="4"/>
</svg>
